<svg id="Camada_1" data-name="Camada 1" xmlns="http://www.w3.org/2000/svg" viewBox="0 0 293.03 81.98"><defs><style>.cls-1{fill:#f21111;}.cls-1,.cls-2{stroke:#000;stroke-miterlimit:10;stroke-width:5px;}.cls-2{fill:#fcfcfc;}</style></defs><title>logo</title><path class="cls-1" d="M293.56,288.33c6.79-31.69-26-45.86-36.47-18Z" transform="translate(-221.63 -230.04)"/><path class="cls-2" d="M256.2,273.39c-6.28,31.29,25.82,45.1,36.42,18Z" transform="translate(-221.63 -230.04)"/><path class="cls-2" d="M278.89,282.59c-2.4,6.82-9.69,2.62-7.92-3.91C273.38,271.87,280.66,276.06,278.89,282.59Z" transform="translate(-221.63 -230.04)"/><path d="M229.82,236c7.14.19,20.37-1.68,24.26,6,8.75,19.54-.68,46.18-19.11,41l-3.08,27H221.63Zm8.8,13.35-2.15,19.86C250,272,250.83,246.83,238.62,249.38Z" transform="translate(-221.63 -230.04)"/><path d="M303.35,230h9.91l-5.34,48.06,9.91-22.88H329.1l-11.81,25.54,7.24,29.35H313.67l-6.15-28.62-3.11,28.62h-9.93Z" transform="translate(-221.63 -230.04)"/><path d="M358.64,287.59H338.08c.31,15.14,10,13.45,17.1,7.66l-1.12,13.55c-26.56,15.12-29.69-26.88-19.84-46.75C351.29,239,362.91,264.32,358.64,287.59ZM351,277c1.15-17.6-10.23-15.41-11.63,0Z" transform="translate(-221.63 -230.04)"/><path d="M395.5,237.7l-2.4,14.44c-7-6.76-19.58-3.89-14.86,7.8,4.23,5.55,11,9.15,12.58,15.2,6.94,28.78-11.23,44.85-29.51,32.62l2.23-15.27c11.94,11.89,23.59-1.87,14.43-12.18-3.88-3.93-7.19-5-9.37-9.67C359.42,243.67,377.55,226.54,395.5,237.7Z" transform="translate(-221.63 -230.04)"/><path d="M416.05,236.87l-2,18.35h7.07l-1.47,13.13h-7.07c-.66,13.13-7.16,34.8,3.92,28.52L415,310c-21.45,7.49-13.54-26.93-12.31-41.65h-5.85l1.44-13.13h5.86l1.44-13Z" transform="translate(-221.63 -230.04)"/><path d="M440.14,253.76c23.29.81,17.7,59.84-3.68,58C413.24,311.05,419.11,251.61,440.14,253.76Zm4.79,25c.22-13.34-7.45-17.39-11.38-4.85-3.84,10.56-1,32,7.45,22.57C444.43,290.74,444.68,285.75,444.93,278.73Z" transform="translate(-221.63 -230.04)"/><path d="M484.84,254.9l-2.23,16c-14.5-9.43-12.48,29.46-14.87,39.2h-10l5.85-55.1h9.09l-1.06,10.06C474.46,257.29,478,251.15,484.84,254.9Z" transform="translate(-221.63 -230.04)"/><path d="M513.77,287.59H493.22c.31,15.14,10,13.45,17.1,7.66L509.2,308.8c-26.56,15.12-29.7-26.88-19.84-46.75C506.42,239,518,264.32,513.77,287.59ZM506.13,277c1.14-17.6-10.23-15.41-11.63,0Z" transform="translate(-221.63 -230.04)"/></svg>